<svg xmlns="http://www.w3.org/2000/svg" style="enable-background:new 0 0 512 512" id="Ebene_1" x="0" y="0" version="1.1" viewBox="0 0 512 512" xml:space="preserve"><style type="text/css">.st0{fill:#0c0c0c}.st1{fill:#fff}.st2{fill:none}.st3{fill:#fff}.st3,.st4,.st5{fill-rule:evenodd;clip-rule:evenodd}.st4{fill:#fa0}.st5{fill:#aaa}.st10,.st11,.st12{fill-rule:evenodd;clip-rule:evenodd}.st6{fill:#55f}.st6,.st7,.st8,.st9{fill-rule:evenodd;clip-rule:evenodd}.st7{fill:#5f5}.st8{fill:#67cbdf}.st9{fill:#f55}.st10{fill:#f5f}.st11{fill:#ff5}.st12{fill:#444}</style><path d="M487.7,390H25.1C26.2,361,35.7,184.8,169,97c27.8-18.3,56.6-29.9,84-37c29.2,6.7,62,18.7,94,40	C479.9,188.6,487.1,363.7,487.7,390z" class="st0"/><path d="M251,91" class="st0"/><path d="M205,59" class="st0"/><path d="M234,414" class="st0"/><path d="M470.9,381.4h-430c1-26.9,9.8-190.7,133.7-272.3c25.8-17,52.6-27.8,78.1-34.4c27.2,6.2,57.6,17.4,87.4,37.2	C463.6,194.1,470.3,356.9,470.9,381.4z" class="st1"/><g><rect width="178.2" height="178.2" x="174" y="157.6" class="st2"/><path d="M288.9,145.4l-132.5,67.5l67.5,132.5l132.5-67.5C356.4,277.9,288.9,145.4,288.9,145.4z" class="st3"/><path d="M294.1,147.3l-135.8,60.5l60.5,135.8l135.8-60.5C354.6,283.1,294.1,147.3,294.1,147.3z" class="st4"/><path d="M299.2,149.4l-138.8,53.3l53.3,138.8l138.8-53.3C352.5,288.2,299.2,149.4,299.2,149.4z" class="st5"/><path d="M304.2,151.7l-141.4,45.9l45.9,141.4l141.4-45.9C350.1,293.1,304.2,151.7,304.2,151.7z" class="st6"/><path d="M309,154.4l-143.6,38.5l38.5,143.6L347.5,298C347.5,298,309,154.4,309,154.4z" class="st7"/><path d="M314.1,157l-145.7,31.2l31.2,145.7l145.7-31.2C345.3,302.7,314.1,157,314.1,157z" class="st8"/><path d="M318.2,160.4l-146.9,23.3l23.3,146.9l146.9-23.3C341.5,307.2,318.2,160.4,318.2,160.4z" class="st9"/><path d="M322.6,163.7l-147.9,15.5l15.5,147.9l147.9-15.5C338.1,311.6,322.6,163.7,322.6,163.7z" class="st10"/><path d="M326.8,167.3l-148.5,7.8l7.8,148.5l148.5-7.8C334.6,315.8,326.8,167.3,326.8,167.3z" class="st11"/><rect width="148.7" height="148.7" x="182.1" y="171.1" class="st12"/><path d="M309.5,197.9l-15.2,91.3c-0.2,1.1-0.9,2.1-1.9,2.7c-0.6,0.3-1.2,0.5-1.8,0.5c-0.5,0-1-0.1-1.4-0.3l-26.9-11.1 l-14.4,17.5c-0.7,0.9-1.8,1.4-2.9,1.4c-0.4,0-0.9-0.1-1.3-0.3c-1.6-0.5-2.6-2-2.5-3.7v-20.6l51.3-62.8L229,267.4l-23.4-9.6 c-1.4-0.5-2.3-1.8-2.4-3.2c-0.2-1.5,0.6-3,1.9-3.7l98.8-56.9c1.2-0.8,2.8-0.8,4,0C309.2,194.8,309.8,196.4,309.5,197.9z" class="st1"/></g></svg>